<?xml version="1.0" encoding="UTF-8" standalone="no"?>
<svg
   xmlns:dc="http://purl.org/dc/elements/1.1/"
   xmlns:cc="http://creativecommons.org/ns#"
   xmlns:rdf="http://www.w3.org/1999/02/22-rdf-syntax-ns#"
   xmlns:svg="http://www.w3.org/2000/svg"
   xmlns="http://www.w3.org/2000/svg"
   xmlns:sodipodi="http://sodipodi.sourceforge.net/DTD/sodipodi-0.dtd"
   xmlns:inkscape="http://www.inkscape.org/namespaces/inkscape"
   class="icon"
   x="0px"
   y="0px"
   viewBox="0 0 28 28"
   enable-background="new 0 0 28 28"
   xml:space="preserve"
   id="svg3561"
   version="1.1"
   inkscape:version="0.91 r13725"
   sodipodi:docname="icon-skype.svg"><metadata
     id="metadata3568"><rdf:RDF><cc:Work
         rdf:about=""><dc:format>image/svg+xml</dc:format><dc:type
           rdf:resource="http://purl.org/dc/dcmitype/StillImage" /><dc:title></dc:title></cc:Work></rdf:RDF></metadata><defs
     id="defs3566" /><sodipodi:namedview
     pagecolor="#ffffff"
     bordercolor="#666666"
     borderopacity="1"
     objecttolerance="10"
     gridtolerance="10"
     guidetolerance="10"
     inkscape:pageopacity="0"
     inkscape:pageshadow="2"
     inkscape:window-width="1360"
     inkscape:window-height="768"
     id="namedview3564"
     showgrid="false"
     showguides="true"
     inkscape:guide-bbox="true"
     inkscape:snap-global="true"
     inkscape:snap-bbox="true"
     inkscape:bbox-paths="true"
     inkscape:object-paths="true"
     inkscape:snap-object-midpoints="true"
     inkscape:snap-bbox-edge-midpoints="true"
     inkscape:bbox-nodes="true"
     inkscape:snap-bbox-midpoints="true"
     inkscape:snap-intersection-paths="true"
     inkscape:object-nodes="true"
     inkscape:snap-smooth-nodes="true"
     inkscape:snap-midpoints="true"
     inkscape:snap-center="true"
     inkscape:zoom="16.857143"
     inkscape:cx="18.43952"
     inkscape:cy="13.628028"
     inkscape:window-x="1920"
     inkscape:window-y="0"
     inkscape:window-maximized="0"
     inkscape:current-layer="svg3561"><sodipodi:guide
       position="13.548885,9.29"
       orientation="0,1"
       id="guide3570" /><sodipodi:guide
       position="9.18,13.674726"
       orientation="1,0"
       id="guide3572" /><sodipodi:guide
       position="18.82,11.283746"
       orientation="1,0"
       id="guide3574" /><sodipodi:guide
       position="14,20.98"
       orientation="1,0"
       id="guide3576" /><sodipodi:guide
       position="20.93,14"
       orientation="0,1"
       id="guide3578" /><sodipodi:guide
       position="7.07,14.622881"
       orientation="1,0"
       id="guide5317" /><sodipodi:guide
       position="13.169492,20.98"
       orientation="0,1"
       id="guide5319" /><sodipodi:guide
       position="20.93,15.275424"
       orientation="1,0"
       id="guide5321" /><sodipodi:guide
       position="13.466102,7.02"
       orientation="0,1"
       id="guide5323" /></sodipodi:namedview><path
     style="fill:#d1cecc"
     d="M 14 0 C 6.27 0 0 6.27 0 14 C 0 21.73 6.27 28 14 28 C 21.73 28 28 21.73 28 14 C 28 6.27 21.73 0 14 0 z M 10.003906 4.9023438 C 10.986904 4.9023437 11.903864 5.1815025 12.681641 5.6621094 C 13.110963 5.5948572 13.551964 5.5585938 14 5.5585938 C 18.661952 5.5585938 22.441406 9.3370098 22.441406 14 C 22.441406 14.448267 22.406101 14.887081 22.337891 15.316406 C 22.819543 16.095226 23.097656 17.012862 23.097656 17.996094 C 23.097599 20.813168 20.8134 23.097656 17.996094 23.097656 C 17.013094 23.097656 16.09517 22.81781 15.316406 22.337891 C 14.887083 22.406106 14.44637 22.441406 13.998047 22.441406 C 9.3370763 22.441406 5.5585938 18.661955 5.5585938 14 C 5.5585937 13.550984 5.5959184 13.113899 5.6621094 12.683594 C 5.1814971 11.903794 4.9023438 10.986903 4.9023438 10.003906 C 4.9023438 7.1856179 7.1865993 4.9023438 10.003906 4.9023438 z M 13.972656 8.5234375 C 13.097089 8.5234375 12.333948 8.6448133 11.685547 8.8886719 C 11.035123 9.1314907 10.534852 9.4803955 10.189453 9.9375 C 9.8450371 10.39258 9.671875 10.916683 9.671875 11.501953 C 9.671875 12.115986 9.8365695 12.634338 10.164062 13.050781 C 10.490804 13.46445 10.930467 13.792476 11.484375 14.03125 C 12.038051 14.270316 12.722582 14.476633 13.539062 14.654297 C 14.147033 14.782637 14.632801 14.904072 14.994141 15.019531 C 15.35421 15.132219 15.643998 15.29548 15.869141 15.509766 C 16.090994 15.720007 16.199219 15.989417 16.199219 16.330078 C 16.199219 16.757378 15.997571 17.112276 15.578125 17.402344 C 15.161683 17.690673 14.616376 17.833984 13.941406 17.833984 C 13.448665 17.833984 13.055953 17.764396 12.759766 17.621094 C 12.460575 17.478082 12.228258 17.295251 12.064453 17.076172 C 11.899436 16.855069 11.74463 16.576658 11.601562 16.244141 C 11.48304 15.957827 11.335963 15.740872 11.162109 15.591797 C 10.986464 15.441688 10.772159 15.367188 10.521484 15.367188 C 10.215478 15.367187 9.9572654 15.462766 9.7558594 15.654297 C 9.5575154 15.844843 9.4550781 16.078336 9.4550781 16.345703 C 9.4550781 16.800843 9.6205816 17.266368 9.9472656 17.742188 C 10.271987 18.218003 10.695695 18.598523 11.216797 18.882812 C 11.951374 19.280828 12.880438 19.476562 14.003906 19.476562 C 14.941679 19.476562 15.752642 19.333322 16.439453 19.042969 C 17.125514 18.754866 17.650516 18.352121 18.007812 17.837891 C 18.365108 17.324418 18.543969 16.745004 18.542969 16.099609 C 18.542969 15.564644 18.441614 15.110539 18.234375 14.738281 C 18.028291 14.366201 17.738279 14.058244 17.369141 13.816406 C 17.001968 13.574571 16.559355 13.371896 16.039062 13.203125 C 15.518019 13.035335 14.937353 12.880461 14.298828 12.742188 C 13.789396 12.622686 13.422274 12.532843 13.201172 12.470703 C 12.983075 12.409302 12.764834 12.324298 12.550781 12.214844 C 12.337535 12.106199 12.170285 11.978114 12.050781 11.830078 C 11.933301 11.684008 11.876 11.512018 11.875 11.308594 C 11.875981 10.983869 12.046999 10.707585 12.404297 10.46875 C 12.759571 10.233734 13.228132 10.113281 13.816406 10.113281 C 14.452216 10.112241 14.908304 10.223214 15.185547 10.4375 C 15.469836 10.656579 15.715514 10.961853 15.919922 11.353516 C 16.081647 11.635033 16.228835 11.837488 16.371094 11.964844 C 16.517167 12.096013 16.727747 12.15625 16.996094 12.15625 C 17.293264 12.157234 17.548664 12.052043 17.748047 11.841797 C 17.947427 11.632542 18.048828 11.392516 18.048828 11.128906 C 18.048828 10.845657 17.970413 10.554692 17.8125 10.257812 C 17.655569 9.9606452 17.405045 9.6767815 17.066406 9.4082031 C 16.726783 9.1398559 16.301199 8.9256851 15.791016 8.7636719 C 15.27881 8.6019456 14.671365 8.5234375 13.972656 8.5234375 z "
     id="LinkedIn" /></svg>