<?xml version="1.0" encoding="UTF-8" standalone="no"?>
<svg
   xmlns:dc="http://purl.org/dc/elements/1.1/"
   xmlns:cc="http://creativecommons.org/ns#"
   xmlns:rdf="http://www.w3.org/1999/02/22-rdf-syntax-ns#"
   xmlns:svg="http://www.w3.org/2000/svg"
   xmlns="http://www.w3.org/2000/svg"
   xmlns:sodipodi="http://sodipodi.sourceforge.net/DTD/sodipodi-0.dtd"
   xmlns:inkscape="http://www.inkscape.org/namespaces/inkscape"
   class="icon"
   x="0px"
   y="0px"
   viewBox="0 0 28 28"
   enable-background="new 0 0 28 28"
   xml:space="preserve"
   id="svg3561"
   version="1.1"
   inkscape:version="0.91 r13725"
   sodipodi:docname="icon-resume.svg"><metadata
     id="metadata3568"><rdf:RDF><cc:Work
         rdf:about=""><dc:format>image/svg+xml</dc:format><dc:type
           rdf:resource="http://purl.org/dc/dcmitype/StillImage" /><dc:title></dc:title></cc:Work></rdf:RDF></metadata><defs
     id="defs3566" /><sodipodi:namedview
     pagecolor="#ffffff"
     bordercolor="#666666"
     borderopacity="1"
     objecttolerance="10"
     gridtolerance="10"
     guidetolerance="10"
     inkscape:pageopacity="0"
     inkscape:pageshadow="2"
     inkscape:window-width="1360"
     inkscape:window-height="768"
     id="namedview3564"
     showgrid="false"
     showguides="false"
     inkscape:guide-bbox="true"
     inkscape:snap-global="true"
     inkscape:snap-bbox="true"
     inkscape:bbox-paths="true"
     inkscape:object-paths="true"
     inkscape:snap-object-midpoints="true"
     inkscape:snap-bbox-edge-midpoints="true"
     inkscape:bbox-nodes="true"
     inkscape:snap-bbox-midpoints="true"
     inkscape:snap-intersection-paths="true"
     inkscape:object-nodes="true"
     inkscape:snap-smooth-nodes="true"
     inkscape:snap-midpoints="true"
     inkscape:snap-center="true"
     inkscape:zoom="16.857143"
     inkscape:cx="10.376649"
     inkscape:cy="13.508512"
     inkscape:window-x="1920"
     inkscape:window-y="0"
     inkscape:window-maximized="0"
     inkscape:current-layer="svg3561"><sodipodi:guide
       position="13.548885,9.29"
       orientation="0,1"
       id="guide3570" /><sodipodi:guide
       position="9.18,13.674726"
       orientation="1,0"
       id="guide3572" /><sodipodi:guide
       position="18.82,11.283746"
       orientation="1,0"
       id="guide3574" /><sodipodi:guide
       position="14,20.98"
       orientation="1,0"
       id="guide3576" /><sodipodi:guide
       position="20.93,14"
       orientation="0,1"
       id="guide3578" /></sodipodi:namedview><path
     id="LinkedIn"
     d="M 28,14 C 28,21.73 21.73,28 14,28 6.27,28 0,21.73 0,14 0,6.27 6.27,0 14,0 21.73,0 28,6.27 28,14 Z M 20.93,8.02 c 0,-0.55 -0.46,-1 -1.02,-1 l -11.82,0 c -0.57,0 -1.02,0.45 -1.02,1 l 0,11.96 c 0,0.55 0.46,1 1.02,1 l 11.82,0 c 0.57,0 1.02,-0.45 1.02,-1 z"
     inkscape:connector-curvature="0"
     style="fill:#d1cecc"
     sodipodi:nodetypes="ssssssssssssss" /><g
     id="g3422"
     transform="matrix(0.01077772,0,0,0.01077772,9.1799988,9.1799988)"><g
       id="g3424"><g
         id="g3426"><path
           d="m 387.426,632.607 -332.426,0 c -7.866,0 -15.477,-1.098 -22.711,-3.104 l 0,159.463 c 0,30.375 24.625,55 55,55 l 719.859,0 c 30.375,0 55,-24.625 55,-55 l 0,-159.465 c -7.234,2.008 -14.846,3.104 -22.711,3.104 l -332.427,0 c 0.019,0.437 0.033,0.873 0.033,1.313 l 0,35.926 c 0,16.568 -13.433,30 -30,30 l -59.65,0 c -16.567,0 -30,-13.432 -30,-30 l 0,-35.926 c 0,-0.44 0.015,-0.876 0.033,-1.311 z"
           id="path3428"
           inkscape:connector-curvature="0"
           style="fill:#d1cecc;fill-opacity:1" /><path
           d="m 0,220.765 0,326.842 c 0,22.273 13.249,41.441 32.289,50.09 6.925,3.146 14.61,4.91 22.711,4.91 l 784.438,0 c 8.103,0 15.785,-1.766 22.711,-4.91 19.039,-8.647 32.289,-27.815 32.289,-50.09 l 0,-326.842 c 0,-30.376 -24.625,-55 -55,-55 l -195.22,0 0,-15 0,-15 0,-25.293 c 0,-33.084 -26.916,-60 -60,-60 l -274,0 c -33.084,0 -60,26.916 -60,60 l 0,25.293 0,15 0,15 -195.218,0 c -30.376,0 -55,24.624 -55,55 z m 310.218,-70 0,-15 0,-25.293 274,0 0.006,25.293 0.005,15 0.004,15 -274.015,0 0,-15 z"
           id="path3430"
           inkscape:connector-curvature="0"
           style="fill:#d1cecc;fill-opacity:1" /></g></g></g></svg>